PathFileType	4	(X/Y/Z)	Patient4_TMGait_0pt4_01_left_40.trc.trc
DataRate	CameraRate	NumFrames	NumMarkers	Units	OrigDataRate	OrigDataStartFrame	OrigNumFrames
76.923076923077	76.923076923077	4	33	mm	76.923076923077	106	       141
Frame#	Time	Sacral			L.Shoulder			Chest			R.Shoulder			Neck			R.ASIS			L.ASIS			R.Thigh.Superior			R.Thigh.Lateral			R.Thigh.Inferior			R.Patella			L.Thigh.Superior			L.Thigh.Lateral			L.Thigh.Inferior			L.Patella			L.Shank.Superior			L.Shank.Lateral			L.Shank.Inferior			R.Shank.Superior			R.Shank.Lateral			R.Shank.Inferior			R.Heel			R.Midfoot.Superior			R.Midfoot.Lateral			R.Toe			L.Heel			L.Midfoot.Lateral			L.Midfoot.Superior			L.Toe			L.Elbow			L.Wrist			R.Elbow			R.Wrist			
		X1	Y1	Z1	X2	Y2	Z2	X3	Y3	Z3	X4	Y4	Z4	X5	Y5	Z5	X6	Y6	Z6	X7	Y7	Z7	X8	Y8	Z8	X9	Y9	Z9	X10	Y10	Z10	X11	Y11	Z11	X12	Y12	Z12	X13	Y13	Z13	X14	Y14	Z14	X15	Y15	Z15	X16	Y16	Z16	X17	Y17	Z17	X18	Y18	Z18	X19	Y19	Z19	X20	Y20	Z20	X21	Y21	Z21	X22	Y22	Z22	X23	Y23	Z23	X24	Y24	Z24	X25	Y25	Z25	X26	Y26	Z26	X27	Y27	Z27	X28	Y28	Z28	X29	Y29	Z29	X30	Y30	Z30	X31	Y31	Z31	X32	Y32	Z32	X33	Y33	Z33	

106	51.585000000000	862.359682088135	1012.169732667721	527.058417616992	1027.598085855390	1440.859962190745	332.692256436913	1147.575986239888	1370.814306011615	480.701965686595	1084.996173854168	1444.189486459890	663.446598671796	1028.612874561662	1500.943726105801	489.699720670483	1100.134738394933	943.488699016241	619.206061343620	1059.828163736917	972.769052928275	348.771509428919	1121.656450081963	738.513504250662	585.724582439387	1034.996583413825	633.230067268184	648.891082583645	1104.160268783796	578.071446396469	565.436703153156	1097.295805700043	492.224139197579	571.281630102549	1139.824207731142	786.615511612777	362.755748433416	1084.251016952175	660.260956667085	286.693905435365	1191.594652174629	597.316969073227	334.525363616304	1210.387955317475	520.996143834227	326.708700473165	1171.374236023164	447.398579978083	319.400786502930	1061.759717907341	349.927988337688	272.680173405618	1112.231728703308	226.374790745048	320.936532610833	1067.204920982424	404.562193299993	575.640503153039	991.786629446405	301.529889065943	634.333314245196	1031.769545300944	207.100014863765	567.581443486927	893.321269525484	44.292585854137	530.616020207405	1065.005416095960	96.816144001647	570.001741876813	975.673699230593	37.476150887928	606.531669620749	1184.134546942496	41.942023094722	598.904595676021	976.457951501205	79.581939963576	362.012096937079	1043.087213332979	69.867457254806	276.951942174774	1132.987088050890	125.393394885803	295.659240890988	1251.689227819180	64.614953247957	257.758926687835	968.439111975837	1088.095908230007	229.034886785462	1042.689268790242	837.208012645650	206.903097647392	1154.014727961278	1110.824439325360	800.714940383946	1373.775396015963	983.821972471266	755.607874151992	
107	51.598000000000	861.821451088835	1012.748561953791	528.145865275564	1026.953556432914	1441.005997751195	333.511104754478	1147.902809010842	1370.408917318998	480.477697589406	1087.012446702986	1443.867625708742	663.780302080556	1029.221088906215	1500.798997997851	490.681735269770	1099.583417400679	943.075510454316	618.866608550599	1058.140358748213	972.854531263312	348.665432856640	1119.289419185013	737.918593275007	585.125222563029	1032.283419367892	633.181647918894	648.943804397612	1100.370040217397	577.542107352575	565.080953575388	1092.920269189130	492.005010939371	571.007603152737	1136.734207328314	785.661790354818	363.150230375913	1080.706365692623	659.799370374949	286.881874047140	1186.818888938447	596.008764567905	336.463468382659	1206.677268000959	522.115273353593	328.667693742710	1171.734344655276	449.018283864097	320.145425733471	1069.447411642835	344.854026470736	271.706836405827	1127.879727555938	224.431679285687	319.627657571951	1062.768218510547	404.440011201716	575.432791771324	987.375038861123	301.560910236918	634.370280532338	1026.878361936222	207.049309367029	567.458080787121	888.144479698259	44.408144522714	530.662309448728	1059.810315542130	96.751072584515	569.989765467633	970.487684643802	37.491193848275	606.533031292469	1178.937348670446	41.708275013132	598.965505779461	1002.010912326637	68.943907816197	358.895015151550	1070.204164460986	63.331424483479	274.589585984734	1156.334132908678	124.336702466798	294.156373985710	1279.073547154913	70.843798941064	257.702959294705	962.300847544281	1089.002467919145	230.820938300975	1028.826900198826	836.099687381252	209.227737507470	1161.600860187927	1111.371025162587	799.438416232261	1384.099413397528	990.451340243828	751.544310417360	
108	51.611000000000	861.281750848281	1013.233816032378	529.055230975802	1026.385464622578	1441.064474721553	334.097409639999	1148.213999063224	1369.935812372047	480.092520897315	1088.899298983868	1443.469534995389	663.911367118625	1029.820850347021	1500.572688972294	491.464928287395	1099.049614047829	942.649371972406	618.417919745517	1056.495806050118	972.770255252924	348.460854573826	1117.070617673782	737.310859106600	584.580097462275	1029.653324206652	633.112710582323	648.959459444900	1096.717655724123	577.003365087652	564.747313821033	1088.683959662136	491.756901417846	570.740050628118	1133.379728579274	784.249375651727	363.626969431501	1076.983855780630	659.142256645448	286.857456124074	1181.655580888668	594.321978273287	338.528797945179	1202.523480491640	522.915877790737	330.715865184948	1171.539782558025	450.582870280862	320.927379657235	1076.801349364868	340.288201292574	270.810204481614	1142.764989384729	223.451658147732	318.610421610432	1058.425356300785	404.294943752494	575.225196876787	983.033063148573	301.589311346298	634.427527626088	1022.019988326402	206.987769225585	567.350197436826	882.962979895297	44.518911354406	530.724732436480	1054.618104795623	96.691059560048	569.989338939873	965.300078728776	37.500095276113	606.547971891277	1173.740404570822	41.484539351197	599.019599523611	1026.897512228718	60.247047139970	356.203894056606	1096.553408045304	58.357474224381	272.765879424404	1178.784698976313	124.427908212920	293.113553192057	1305.052092773629	77.925038407206	258.433478307594	956.213554711260	1089.879162354660	232.549970338433	1015.380161840115	835.308533439694	211.402845642347	1168.587863936984	1111.787086405300	797.855063264729	1393.560640925991	996.820032580095	747.286154988052	
109	51.624000000000	860.728863975915	1013.639967285183	529.795707878454	1025.885850849309	1441.052781755975	334.441046352329	1148.497258613789	1369.416454490395	479.543209503801	1090.637770741025	1443.020159650554	663.832866891748	1030.387608923701	1500.290720835435	492.017516766501	1098.535746114075	942.226821964137	617.870095202265	1054.881133915304	972.548719792135	348.161125042255	1115.002498018082	736.696714238079	584.088485847955	1027.097043216821	633.030702886848	648.926213068618	1093.200129103530	576.462786188227	564.427584473884	1084.585031431552	491.484490402391	570.468296476445	1129.845966158868	782.535750412270	364.162066744397	1073.231776431859	658.376169790794	286.639850188515	1176.368206362270	592.460586860116	340.586732301191	1198.180991935193	523.516071558764	332.741679196271	1170.947162427072	452.115333756540	321.699430515432	1083.686925041479	336.362929522422	270.076707866229	1156.597980908651	223.410376634012	317.930656410578	1054.172304836326	404.131643343643	575.011940060056	978.749229176165	301.624078638384	634.495931081172	1017.195548387151	206.920271659192	567.258196368485	877.774177292053	44.627889032406	530.804156889612	1049.428844293582	96.639396915687	570.005071958406	960.108795676839	37.503534583451	606.578114471102	1168.542001436512	41.280161739820	599.068335909994	1050.496517582269	53.585912463813	354.130895313479	1121.469012911166	54.933360395655	271.601266646145	1199.836998463421	125.554747059682	292.563505858887	1329.082694353773	85.550517707093	259.853275516129	950.246682599610	1090.732902455259	234.193113034723	1002.442023846633	834.798200841659	213.430015140068	1174.969760348222	1112.072863453620	795.968641131521	1402.147652258553	1002.866296531436	742.866245125031	
